<?xml version="1.0" encoding="utf-8"?>
<!-- Generator: Adobe Illustrator 23.0.3, SVG Export Plug-In . SVG Version: 6.00 Build 0)  -->
<svg version="1.1" id="レイヤー_1" xmlns="http://www.w3.org/2000/svg" xmlns:xlink="http://www.w3.org/1999/xlink" x="0px"
	 y="0px" viewBox="0 0 400 400" style="enable-background:new 0 0 400 400;" xml:space="preserve">
<g>
	<g>
		<path d="M306,0v25.8h-13.6V0h-17.5v25.8h-13.6V0h-17.5v25.8h-13.6V0h-17.5v25.8h-13.6V0h-17.5v25.8H168V0h-17.5v25.8h-13.6V0
			h-17.5v25.8h-14.9V0H87v219h17.5v-18.4h13.6V219h17.5v-18.4h13.6V219h17.5v-18.4h13.6V219h17.5v-18.4h13.6V219h17.5v-18.4h13.6
			V219H260v-18.4h13.6V219h17.5v-18.4H306V219h17.5V0H306z M306,43.4v60.9h-13.6V43.4H306z M274.9,43.4v60.9h-13.6V43.4H274.9z
			 M243.3,43.4v60.9h-13.6V43.4H243.3z M212.2,43.4v60.9h-13.6V43.4H212.2z M180.7,43.4v60.9h-13.6V43.4H180.7z M149.6,43.4v60.9
			h-13.6V43.4H149.6z M118.1,43.4v60.9h-13.6V43.4H118.1z M104.5,183v-61.3h13.6v60.9h-13.6V183z M135.6,183v-61.3h13.6v60.9h-13.6
			V183z M167.1,183v-61.3h13.6v60.9h-13.6V183z M198.2,183v-61.3h13.6v60.9h-13.6V183z M229.8,183v-61.3h13.6v60.9h-13.6V183z
			 M260.9,183v-61.3h13.6v60.9h-13.6V183z M292.4,183v-61.3H306v60.9h-13.6V183z"/>
	</g>
	<g>
		<path d="M138.8,268.7c0,0,2.9,2.4,4.6,4.1c-0.1,0.6-0.6,0.8-1.4,0.8h-9.2v3.3c12.2,4.5,9.1,12,5.4,9.2c-0.8-2.4-3.2-5.6-5.4-8
			v23.9c0,0.4-1.4,1.3-3.4,1.3h-0.7v-21.7c-2.5,5.1-5.9,9.5-10.1,13.3l-0.7-0.7c4.4-5.6,7.6-13.2,9.3-20.6H119l-0.4-1.6h10.3v-9.9
			c-3.4,0.6-7,1.2-10.3,1.5l-0.3-0.8c6.8-1.7,15.2-5.1,19.4-7.4l4.8,4.2c-0.5,0.5-1.5,0.5-2.9,0c-1.9,0.6-4.2,1.1-6.7,1.7v10.6h3.3
			L138.8,268.7z M165.4,264.9c-0.4,0.5-1.3,0.9-2.3,1.1v32.4c-0.1,0.3-2.1,1.1-3.5,1.1h-0.6v-5.3h-10.5v4.7c0,0.5-1.6,1.6-3.4,1.6
			h-0.7v-38.9l4.4,2h9.7l2.2-2.6L165.4,264.9z M158.9,292.8v-27.6h-10.5v27.6H158.9z"/>
		<path d="M209.6,257c-0.2,0.6-0.8,0.9-2.2,1c4.8,4.7,13.9,8.2,21.9,10.3l-0.1,0.8c-1.9,0.5-3.3,2.2-3.6,3.9
			c-7.8-3.2-15.4-8.4-19.2-14.4c-1.5,1.7-3.3,3.4-5.4,5.1c11.2,2.4,7.5,9.7,3.8,6.9c-0.5-2.1-2.5-4.9-4.2-6.5l0.4-0.3
			c-2.6,2.1-5.6,4.1-8.7,5.9l4.1,1.7h18l2.1-2.2l4.4,3.3c-0.3,0.4-0.9,0.7-1.8,0.9v12.9c-0.1,0.4-2.1,1.4-3.5,1.4h-0.7v-1.5h-19.1
			v11.2c3.4-0.6,7.9-1.5,12.4-2.4l0.2,0.8c-3.3,1.4-9.1,3.9-15.5,6.3c-0.3,0.5-0.7,0.7-1,0.9l-2.7-4.3c2.1-1.3,2.5-1.7,2.5-2.6
			v-26.2c-3.3,1.9-6.8,3.5-10.2,4.8l-0.3-0.8c8.4-4.2,18.6-12.8,21.3-18.7L209.6,257z M195.7,272.9v5.1h19.1v-5.1H195.7z
			 M214.8,284.7v-5.2h-19.1v5.2H214.8z M200.2,289.3c5.2,0.8,9.5,1.9,12.9,3.1c2.8-1.9,5.9-4.7,7.6-6.6l5,3.4
			c-0.4,0.5-0.8,0.7-2,0.4c-2.1,1.1-5.5,2.5-8.7,3.5c11.7,4.6,12,10.5,7.8,9.7c-4.7-4.7-15.6-10.3-22.9-12.8L200.2,289.3z"/>
		<path d="M265.6,265.5c-0.4,0.5-0.8,0.7-2,0.8c-0.9,7.8-2.4,15.6-5.9,22.6c4.5,7.1,11.2,8.7,21.4,8.7c3,0,10-0.1,13.4-0.1v0.7
			c-1.7,0.3-2.6,1.8-2.7,3.6h-11.1c-10.8,0-17.9-2.1-22.5-10.3c-2.9,4.6-6.8,8.8-12.2,12l-0.6-0.7c5.1-4.1,8.7-9.2,11.2-15
			c-1.5-3.8-2.5-8.4-3.3-14.3c-1.9,4.5-4.3,8.7-7.1,11.8l-0.8-0.5c4.3-7,7.2-18.7,8.3-29.4l6,1.1c-0.2,0.7-0.7,1.2-1.9,1.3
			c-0.4,2.1-0.9,4.3-1.5,6.5h4.8l2.3-2.5L265.6,265.5z M253.8,265.6c-0.6,2-1.2,4-2,5.9c1,5.5,2.2,9.9,3.7,13.4
			c2.2-6,3.3-12.6,4-19.3H253.8z M261.8,293.2c6.1-6.8,6.9-15.2,6.9-23.2v-11.8l4.6,1.9h4.9l2.2-2.4l4.4,3.8c-0.4,0.4-0.9,0.6-2,0.8
			v24.8c0,0.7,0.2,1,1,1h1.7c0.7,0,1.3,0,1.6-0.1c0.4,0,0.5-0.1,0.7-0.7c0.3-0.9,1.1-5.4,1.7-9h0.7l0.2,9.3c1.1,0.5,1.3,1,1.3,1.8
			c0,1.7-1.6,2.5-6.4,2.5h-2.6c-3.3,0-3.9-1-3.9-3.7v-26.4h-6.2v8.4c0,7.5-0.9,17.3-10.2,23.8L261.8,293.2z"/>
	</g>
	<g>
		<path d="M114.4,352.2c6.1,12.9,17.5,23.7,28.4,28.8l-0.1,0.8c-2.9,0.4-5.2,2.6-6.4,6c-10.5-7.3-18.6-19.6-23.3-35.4v29.5h4
			l3.9-5.5c0,0,4.5,3.8,7.1,6.4c-0.2,0.8-0.9,1.1-1.9,1.1h-13v13.9c0,0.8-2.8,2.1-5.5,2.1h-1.3v-16H92.2l-0.6-2.1h14.5v-20.5
			c-6.2,11.6-16,21.5-28.9,28.5l-0.8-0.8c11.8-9.1,20.8-23.3,25.2-36.8H79.7l-0.6-2.1h27v-16.1l9.8,1c-0.1,1.1-0.8,1.8-2.9,2.2v12.9
			h15.5l4.5-5.8c0,0,5,4,7.9,6.7c-0.2,0.8-0.9,1.1-2,1.1H114.4z"/>
		<path d="M237.8,371.9c-0.6,0.6-1.8,0.9-3.7,1c-12,16.3-30.2,24.3-60.1,27.1l-0.4-1.2c24.5-5,41.5-12.4,52.2-27.4h-18.6
			c-2.2,1.6-4.6,3.1-7.1,4.6c13.4,2.8,9.8,13.6,3.8,10.3c-0.9-3.1-3.7-6.4-6.6-8.9c-5.5,3-11.7,5.5-18.3,7.3l-0.5-0.9
			c11.2-5.1,21.5-13.3,27.3-20.3c-8.5,4-18.6,6.9-30.7,8.8l-0.5-1.1c20.3-5.6,35.7-13.6,45.6-26.1h-20.4c-1.8,1.3-3.8,2.7-5.9,3.9
			c13.9,2.2,10.5,12.5,4.6,9.5c-1.1-2.8-4-6-6.9-8.2c-4.5,2.5-9.4,4.7-14.5,6.2l-0.6-0.9c10.4-5.4,20-14.5,24.4-21.4l10.3,2.6
			c-0.3,0.9-1.1,1.3-3.4,1.3c-1.6,1.6-3.4,3.3-5.5,4.9h18.7l3.8-3.7l7.1,6.2c-0.6,0.6-1.8,0.9-3.6,0.9c-5.2,6.2-11.5,11.3-19.2,15.5
			l8.9,2.1c-0.4,0.9-1.3,1.3-3.5,1.3c-1.4,1.3-3,2.6-4.6,4h16.6l4-3.8L237.8,371.9z"/>
		<path d="M283.4,356.2c0,13.5-1,31.5-14.7,43.7l-0.9-0.6c8-12.9,8.9-28.7,8.9-43.2v-20.6l7.9,3h36.6l3.3-3.5l7,5.3
			c-0.5,0.6-1.6,1.1-3,1.5v11.3c-0.1,0.4-2,1.1-3.8,1.3c0.4,0.4,4.5,3.3,7.1,5.5c-0.2,0.8-0.9,1.1-2,1.1h-21.3
			c-4.3,3.4-10.9,7.4-16.8,10.1c6.9-0.1,16.8-0.4,27.4-0.8c-2.6-2.3-5.3-4.4-7.9-5.7l0.6-0.7c22.5,2.1,20.3,16.4,13.1,13.3
			c-0.9-1.7-2.4-3.5-4.1-5.2c-7.4,1.4-18.4,3.3-31.3,5.1c-0.5,0.8-1.1,1.3-1.7,1.6l-2.9-7.7c0,0,1.3-0.1,2.1-0.4
			c4.3-1.7,9.5-6.3,12.3-9.5h-14.3l-0.6-2.1h36.2l3.8-4.5c-0.6,0.1-1.1,0.1-1.6,0.1h-1.1v-2.7h-38.4V356.2z M327.1,390
			c0,0,4.5,3.5,7,6c-0.2,0.8-0.9,1.1-1.9,1.1h-52.9l-0.6-2.1h23.6v-9.4h-17.5l-0.6-2.1h18.1v-8.1l8.9,0.8c-0.1,0.9-0.7,1.6-2.3,1.8
			v5.5h9.1l3.7-4.6c0,0,4.3,3.1,6.9,5.5c-0.2,0.8-0.9,1.1-1.9,1.1h-17.8v9.4h14.3L327.1,390z M283.4,340.7v9.4h38.4v-9.4H283.4z"/>
	</g>
</g>
</svg>
